<?xml version="1.0" standalone="no"?>
<!DOCTYPE svg PUBLIC "-//W3C//DTD SVG 20010904//EN"
 "http://www.w3.org/TR/2001/REC-SVG-20010904/DTD/svg10.dtd">
<svg version="1.0" xmlns="http://www.w3.org/2000/svg"
 width="512.000000pt" height="512.000000pt" viewBox="0 0 512.000000 512.000000"
 preserveAspectRatio="xMidYMid meet">

<g transform="translate(0.000000,512.000000) scale(0.100000,-0.100000)"
fill="#000000" stroke="none">
<path d="M213 5102 c-63 -22 -115 -61 -154 -115 -61 -84 -60 -65 -57 -953 l3
-809 24 -53 c31 -69 112 -143 181 -165 45 -15 99 -17 379 -17 l326 0 210 -210
c224 -224 242 -236 305 -210 53 22 55 30 60 229 l5 186 740 5 c687 5 743 6
779 23 58 27 131 101 157 160 l24 52 0 830 c0 827 0 830 -21 876 -31 67 -87
124 -152 156 l-57 28 -1350 2 c-1276 2 -1353 2 -1402 -15z m2713 -207 c66 -27
64 1 64 -842 0 -702 -1 -761 -18 -793 -9 -19 -28 -40 -42 -47 -19 -10 -200
-13 -797 -13 -577 0 -779 -3 -798 -12 -43 -19 -55 -56 -55 -165 l0 -98 -127
127 c-71 69 -138 131 -150 137 -15 7 -134 11 -365 11 -377 0 -381 1 -410 60
-17 32 -18 91 -18 793 0 838 -2 814 62 842 50 22 2602 22 2654 0z"/>
<path d="M534 4577 c-3 -8 -3 -56 -2 -108 l3 -94 533 -3 532 -2 0 110 0 110
-530 0 c-431 0 -532 -2 -536 -13z"/>
<path d="M530 4055 l0 -105 1070 0 1070 0 0 105 0 105 -1070 0 -1070 0 0 -105z"/>
<path d="M530 3625 l0 -105 855 0 855 0 0 105 0 105 -855 0 -855 0 0 -105z"/>
<path d="M4160 5106 c-149 -43 -267 -162 -306 -310 -20 -73 -19 -343 1 -421
80 -309 464 -425 694 -210 117 110 141 181 141 427 0 153 -3 187 -20 236 -42
119 -138 220 -252 264 -66 25 -196 33 -258 14z m220 -234 c31 -19 52 -43 72
-81 27 -52 28 -58 28 -205 0 -172 -10 -208 -73 -263 -102 -90 -260 -62 -327
57 -22 40 -25 59 -29 175 -4 175 7 224 68 285 75 75 170 87 261 32z"/>
<path d="M3833 3826 c-86 -21 -176 -72 -252 -142 -56 -52 -79 -83 -111 -147
-49 -101 -60 -167 -60 -384 l0 -163 110 0 110 0 0 190 c0 233 10 268 98 352
98 93 96 93 537 93 l380 0 67 -32 c39 -18 86 -51 112 -77 69 -72 79 -110 84
-333 l4 -193 104 0 104 0 0 183 c0 203 -11 271 -59 365 -76 148 -204 252 -353
287 -84 20 -794 20 -875 1z"/>
<path d="M2030 2560 l0 -110 105 0 105 0 0 110 0 110 -105 0 -105 0 0 -110z"/>
<path d="M2454 2657 c-2 -7 -3 -56 -2 -108 l3 -94 105 0 105 0 0 105 0 105
-103 3 c-79 2 -104 0 -108 -11z"/>
<path d="M2880 2560 l0 -110 105 0 105 0 0 110 0 110 -105 0 -105 0 0 -110z"/>
<path d="M3673 2540 c-18 -11 -34 -21 -35 -22 -1 -2 -4 -88 -7 -193 l-6 -190
-740 -5 c-687 -5 -743 -6 -779 -23 -58 -27 -131 -101 -157 -160 l-24 -52 0
-830 0 -830 28 -57 c32 -65 89 -121 156 -152 l46 -21 1365 0 1365 0 46 21 c67
31 124 87 156 152 l28 57 0 830 0 830 -24 53 c-31 69 -112 143 -181 165 -45
15 -99 17 -378 17 l-326 0 -216 215 c-198 197 -219 215 -251 215 -18 0 -49 -9
-66 -20z m444 -609 c15 -7 134 -11 365 -11 377 0 381 -1 410 -60 17 -32 18
-91 18 -793 0 -843 2 -815 -64 -842 -53 -22 -2599 -22 -2652 0 -67 28 -65 -3
-62 860 l3 775 28 27 27 28 793 5 c435 3 800 9 810 14 34 17 47 60 47 163 l0
98 128 -127 c70 -69 137 -131 149 -137z"/>
<path d="M2450 1495 l0 -105 535 0 535 0 0 105 0 105 -535 0 -535 0 0 -105z"/>
<path d="M2450 1065 l0 -105 1070 0 1070 0 0 105 0 105 -1070 0 -1070 0 0
-105z"/>
<path d="M2454 737 c-3 -8 -3 -56 -2 -108 l3 -94 853 -3 852 -2 0 110 0 110
-850 0 c-697 0 -852 -2 -856 -13z"/>
<path d="M725 2113 c-121 -44 -205 -118 -258 -231 l-32 -67 0 -216 0 -215 37
-75 c46 -93 112 -158 206 -202 63 -30 74 -32 177 -32 105 0 114 2 179 34 117
57 207 169 235 292 14 57 13 341 0 398 -28 124 -117 234 -235 292 -60 30 -78
34 -163 36 -73 3 -108 -1 -146 -14z m238 -226 c30 -18 56 -44 74 -75 28 -46
28 -50 28 -212 0 -162 0 -166 -28 -212 -49 -84 -149 -124 -244 -97 -59 16
-124 78 -141 135 -16 54 -16 294 0 348 15 50 80 117 128 133 56 19 131 10 183
-20z"/>
<path d="M397 835 c-135 -37 -274 -150 -336 -272 -50 -100 -61 -165 -61 -375
l0 -188 104 0 104 0 4 198 c3 175 6 202 25 244 28 62 96 134 158 166 l50 27
405 0 405 0 57 -28 c62 -30 115 -83 150 -149 21 -40 23 -57 26 -250 l3 -208
111 0 110 0 -4 203 c-4 170 -8 212 -26 268 -42 127 -148 257 -258 316 -118 62
-127 63 -573 62 -303 -1 -418 -4 -454 -14z"/>
</g>
</svg>
